<?xml version="1.0" encoding="UTF-8" standalone="no"?>
<svg xmlns="http://www.w3.org/2000/svg" height="488" width="500" version="1.1">
  <path d="m 250, 0.181 c -137, 0 -250, 112 -250, 250, 0, 110, 71.6, 204, 171, 238, 12.5, 2.29, 17.1 -5.44, 17.1 -12.1, 0 -5.92 -0.215 -21.6 -0.338 -42.5 -69.5, 15.1 -84.2 -33.5 -84.2 -33.5 -11.4 -28.9 -27.7 -36.6 -27.7 -36.6 -22.8 -15.5, 1.72 -15.2, 1.72 -15.2, 25.1, 1.78, 38.2, 25.8, 38.2, 25.8, 22.2, 38.2, 58.5, 27.1, 72.8, 20.8, 2.28 -16.1, 8.71 -27.2, 15.9 -33.5 -55.5 -6.31 -114 -27.8 -114 -124, 0 -27.2, 9.75 -49.6, 25.7 -67.1 -2.58 -6.32 -11.2 -31.8, 2.44 -66.2, 0, 0, 21 -6.72, 68.8, 25.6, 19.9 -5.54, 41.4 -8.32, 62.6 -8.41, 21.3, 0.0921, 42.6, 2.88, 62.6, 8.41, 47.8 -32.4, 68.6 -25.6, 68.6 -25.6, 13.6, 34.5, 5.06, 59.9, 2.49, 66.2, 16, 17.5, 25.8, 39.9, 25.8, 67.1, 0, 96.1 -58.5, 117 -114, 123, 8.97, 7.72, 17, 23, 17, 46.4, 0, 33.4 -0.308, 60.4 -0.308, 68.6, 0, 6.7, 4.5, 14.5, 17.2, 12, 99.2 -33.1, 171 -126, 171 -238, 0 -139 -112 -250 -250 -250" fill="#cccccc"/>
</svg>
