<?xml version="1.0" encoding="UTF-8" standalone="no"?>
<svg xmlns="http://www.w3.org/2000/svg" version="1.1" width="30" height="30" viewBox="0 0 500 500">
  <path id="path4" fill="#CCC" d="M 74.16,72.724 C 50.116,96.834 31.693,124.14 19.047,154.65 6.4,185.08 -0.001,217.07 -0.001,249.85 c 0,33.318 6.292,64.841 18.813,95.194 12.49,30.041 30.679,57.038 54.645,81.149 23.966,23.954 51.054,42.213 81.187,54.853 30.211,12.64 61.671,19.039 94.457,19.039 33.021,0 64.949,-6.4841 96.019,-19.273 30.913,-12.797 58.548,-31.055 82.748,-55.087 23.497,-22.862 41.374,-49.391 53.396,-79.588 12.48,-28.87 18.73,-60.86 18.73,-95.19 0,-33.55 -6.25,-65.54 -17.95,-95.98 -12.49,-30.43 -30.45,-56.956 -53.87,-80.364 C 378.994,25.836 319.664,0 249.997,0 180.33,0 121.78,24.269 74.16,72.724 z m 172.674,135.845 -32.787,17.166 c -3.5753,-7.4204 -7.9625,-12.64 -13.193,-15.605 -5.2069,-2.965 -10.148,-4.3852 -14.676,-4.3852 -22.326,0 -33.411,14.669 -33.411,44.164 0,13.343 2.8962,24.189 8.509,32.147 5.6518,8.0368 13.895,11.938 24.902,11.938 14.598,0 25.059,-7.1941 30.991,-21.458 l 30.757,15.606 c -6.5418,12.172 -15.691,21.77 -27.322,28.792 -11.553,6.9913 -24.356,10.456 -38.329,10.456 -22.326,0 -40.203,-6.7962 -53.942,-20.443 -13.661,-13.655 -20.453,-32.694 -20.453,-57.038 0,-23.798 6.9087,-42.603 20.765,-56.57 13.817,-13.967 31.304,-20.989 57.026,-20.9117 25.722,0.0773 47.736,12.1089 61.163,36.1419 z m 144.186,0 -33.177,17.322 c -3.5675,-7.4204 -7.9625,-12.64 -13.193,-15.606 -5.2147,-2.965 -10.148,-4.3851 -14.91,-4.3851 -21.858,0 -32.787,14.825 -32.787,44.476 0,13.343 2.8962,24.189 8.509,32.147 5.644,8.0368 13.895,11.938 24.902,11.938 14.52,0 24.824,-7.1941 30.757,-21.458 l 31.226,15.605 c -6.8306,12.172 -16.003,21.77 -27.557,28.792 -11.632,6.9913 -24.356,10.456 -38.095,10.456 -22.639,0 -40.671,-6.7962 -54.176,-20.443 -14.052,-12.484 -20.297,-31.991 -20.297,-56.18 0,-23.798 6.8931,-42.603 20.765,-56.57 13.817,-13.967 30.031,-22.1429 56.065,-22.1507 26.034,-0.008 48.853,12.0238 61.968,36.0568 z"/>
</svg>