<?xml version="1.0" encoding="UTF-8" standalone="no"?>
<svg xmlns="http://www.w3.org/2000/svg" version="1.1" width="30" height="30" viewBox="0 0 500 500">
  <path d="M 250, 0 c -138, 0 -250, 112 -250, 250, 0, 112, 73.3, 206, 174, 238, 10, 1, 14 -6, 14 -12 v -43 c -70, 16 -84 -33 -84 -33 -11.8 -29 -28.1 -37 -28.1 -37 -22.8 -15, 1.7 -15, 1.7 -15, 25.4, 2, 38.4, 26, 38.4, 26, 22, 38, 58, 27, 73, 21, 2 -16, 8 -28, 15 -34 -55 -6 -114 -28 -114 -124, 0 -27, 9.5 -49, 25.5 -67 -2 -6 -11 -32, 3 -66, 0, 0, 21 -6.8, 68, 26, 20 -6, 42 -9, 63 -9 s 43, 3, 63, 9 c 47 -32.9, 68 -26, 68 -26, 14, 34, 5, 60, 3, 66, 16, 18, 26, 40, 26, 67, 0, 96 -59, 117 -114, 123, 8, 8, 16, 23, 16, 47 v 68 c 0, 7, 5, 14, 17, 12, 99 -33, 171 -127, 171 -237, 0 -138 -112 -250 -250 -250 z" fill="#cccccc"/>
</svg>
