<?xml version="1.0" encoding="UTF-8" standalone="no"?>
<svg xmlns="http://www.w3.org/2000/svg" version="1.1" width="30" height="30" viewBox="0 0 500 500">
    <path d="M 250 0 c -138, 0 -250, 112 -250, 250 s 112, 250, 250, 250, 250 -112, 250 -250 -112 -250 -250 -250 zm 34.5, 76.1 c 9.99, 0.253, 17.4, 3.41, 22.3, 9.47 s 7.33, 13.5, 7.31, 22.3 c -0.261, 10.8 -4.11, 20.1 -11.6, 28 -7.45, 7.89 -16.9, 12 -28.4, 12.4 -9.68 -0.0593 -17.1 -2.9 -22.1 -8.5 -5.03 -5.6 -7.56 -13.6 -7.59 -24 -0.008 -8.53, 3.32 -17.1, 9.97 -25.7, 6.65 -8.62, 16.7 -13.3, 30.1 -13.9 zm -2.12, 105 c 7.62, 0.261, 12.2, 5.01, 13.8, 14.2, 1.59, 9.24, 0.578, 21.4 -3.06, 36.5 l -29, 120 c -1.74, 7.27 -2.47, 12.6 -2.16, 15.9, 0.313, 3.3, 1.39, 4.93, 3.22, 4.88, 2.79 -0.0446, 7.23 -1.95, 13.3 -5.66, 6.05 -3.71, 13.1 -8.98, 21 -15.8 l 9.28, 13.6 c -19.5, 20.7 -37.8, 35.7 -54.9, 44.8 -17.1, 9.15 -29.8, 13.6 -38, 13.4 -8.61, 0.543 -14.9 -3.23 -18.8 -11.3 -3.96 -8.08 -3.27 -23.7, 2.06 -46.9 l 26.4 -113 c 1.66 -6.9, 2.63 -11.9, 2.91 -14.9, 0.275 -3.02 -0.453 -4.47 -2.19 -4.41 -2.54, 0.119 -6.84, 1.85 -12.9, 5.19 -6.07, 3.34 -12.6, 7.57 -19.6, 12.7 l -7.5 -13.9 c 20 -18.1, 38.7 -31.9, 55.9 -41.4, 17.2 -9.49, 30.8 -14.2, 40.6 -14.3 z" fill="#cccccc" />
</svg>
